<svg width="1431" height="130" viewBox="0 0 1431 130" fill="none" xmlns="http://www.w3.org/2000/svg">
<path d="M1323.88 125V126.5H1325.38H1357.96H1359.46V125V86.8906H1368.34L1388.98 125.704L1389.4 126.5H1390.31H1425.7H1428.22L1427.01 124.283L1403.39 80.9023C1409.18 77.851 1413.81 73.662 1417.23 68.3338C1421.25 62.1435 1423.21 54.5989 1423.21 45.7813C1423.21 37.0441 1421.31 29.4578 1417.43 23.087C1413.56 16.737 1408.14 11.8764 1401.21 8.51384C1394.29 5.15474 1386.27 3.5 1377.18 3.5H1325.38H1323.88V5V125ZM1369.45 58.5781H1359.46V32.5156H1369.45C1373.14 32.5156 1376.21 33.0261 1378.68 33.9945L1378.7 33.9993L1378.71 34.0038C1381.18 34.9217 1383 36.337 1384.25 38.2292L1384.26 38.2422L1384.27 38.255C1385.53 40.0845 1386.23 42.5531 1386.23 45.7813C1386.23 48.9678 1385.53 51.3923 1384.27 53.1797L1384.27 53.1874L1384.26 53.1951C1383.02 55.0078 1381.21 56.3719 1378.73 57.2572C1376.24 58.123 1373.16 58.5781 1369.45 58.5781Z" stroke="black" stroke-width="3"/>
<path d="M1221.24 125V126.5H1222.74H1308.99H1310.49V125V98.75V97.25H1308.99H1256.82V79.625H1304.77H1306.27V78.125V51.875V50.375H1304.77H1256.82V32.75H1309.23H1310.73V31.25V5V3.5H1309.23H1222.74H1221.24V5V125Z" stroke="black" stroke-width="3"/>
<path d="M1112.96 125V126.5H1114.46H1147.04H1148.54V125V90.875H1165.09C1174.41 90.875 1182.64 89.1409 1189.72 85.6215C1196.83 82.1026 1202.39 77.0674 1206.33 70.5234C1210.32 63.963 1212.29 56.2429 1212.29 47.4219C1212.29 38.6827 1210.38 30.9724 1206.52 24.3423C1202.66 17.7261 1197.26 12.5893 1190.34 8.94606C1183.4 5.29831 1175.36 3.5 1166.26 3.5H1114.46H1112.96V5V125ZM1158.52 62.5625H1148.54V32.5156H1158.52C1162.18 32.5156 1165.21 33.1508 1167.65 34.3533L1167.66 34.3591L1167.67 34.3646C1170.15 35.533 1172 37.2076 1173.28 39.3924L1173.29 39.4046L1173.3 39.4167C1174.61 41.5574 1175.3 44.2027 1175.3 47.4219C1175.3 50.5968 1174.61 53.2721 1173.29 55.5037L1173.28 55.5112L1173.28 55.5188C1171.99 57.7482 1170.13 59.4829 1167.64 60.7267C1165.2 61.928 1162.18 62.5625 1158.52 62.5625Z" stroke="black" stroke-width="3"/>
<path d="M1092.9 99.5498L1092.9 99.5474C1098.25 90.0899 1100.89 78.5505 1100.89 65C1100.89 51.4498 1098.25 39.9286 1092.9 30.5088C1087.57 21.0969 1080.36 13.9544 1071.27 9.12575C1062.2 4.27362 1052.11 1.85938 1041.03 1.85938C1029.87 1.85938 1019.74 4.27295 1010.67 9.12626C1001.62 13.9558 994.425 21.0993 989.098 30.5112L989.097 30.513C983.784 39.9319 981.169 51.4515 981.169 65C981.169 78.4724 983.784 89.9706 989.095 99.426L989.099 99.4326C994.426 108.804 1001.62 115.963 1010.66 120.869L1010.67 120.873C1019.74 125.727 1029.87 128.141 1041.03 128.141C1052.11 128.141 1062.2 125.746 1071.26 120.934L1071.27 120.932C1080.36 116.065 1087.57 108.924 1092.9 99.5498ZM1061.6 47.3663L1061.6 47.3729L1061.6 47.3796C1063.43 52.0779 1064.37 57.9357 1064.37 65C1064.37 72.0637 1063.43 77.9429 1061.6 82.6827L1061.6 82.6887C1059.81 87.375 1057.19 90.8603 1053.77 93.2389C1050.4 95.5713 1046.18 96.7812 1041.03 96.7812C1035.88 96.7812 1031.64 95.5733 1028.23 93.2399C1024.85 90.8615 1022.22 87.3748 1020.4 82.6857C1018.61 77.9438 1017.68 72.0632 1017.68 65C1017.68 57.9344 1018.61 52.074 1020.4 47.373C1022.22 42.6397 1024.85 39.1565 1028.23 36.8197L1028.23 36.8178C1031.65 34.4458 1035.88 33.2187 1041.03 33.2187C1046.17 33.2187 1050.39 34.4459 1053.76 36.8136L1053.77 36.8188L1053.78 36.8239C1057.19 39.1602 1059.81 42.6397 1061.6 47.3663Z" stroke="black" stroke-width="3"/>
<path d="M892.048 125V126.5H893.548H974.642H976.142V125V98.75V97.25H974.642H927.626V5V3.5H926.126H893.548H892.048V5V125Z" stroke="black" stroke-width="3"/>
<path d="M789.406 125V126.5H790.906H877.156H878.656V125V98.75V97.25H877.156H824.984V79.625H872.938H874.438V78.125V51.875V50.375H872.938H824.984V32.75H877.391H878.891V31.25V5V3.5H877.391H790.906H789.406V5V125Z" stroke="black" stroke-width="3"/>
<path d="M693.836 4.58107L693.521 3.5H692.396H655.599H653.524L654.174 5.47017L693.784 125.47L694.124 126.5H695.208H739.739H740.824L741.164 125.47L780.773 5.47017L781.423 3.5H779.349H742.552H741.426L741.111 4.58107L717.474 85.8501L693.836 4.58107Z" stroke="black" stroke-width="3"/>
<path d="M555.441 125V126.5H556.941H643.191H644.691V125V98.75V97.25H643.191H591.02V79.625H638.973H640.473V78.125V51.875V50.375H638.973H591.02V32.75H643.426H644.926V31.25V5V3.5H643.426H556.941H555.441V5V125Z" stroke="black" stroke-width="3"/>
<path d="M434.431 125V126.5H435.931H482.103C494.487 126.5 505.305 124.078 514.507 119.175L514.512 119.173C523.714 114.23 530.839 107.145 535.861 97.9452L535.862 97.9428C540.888 88.6948 543.368 77.6951 543.368 65C543.368 52.3052 540.869 41.3235 535.802 32.113C530.779 22.872 523.613 15.7861 514.33 10.8826C505.087 5.94049 494.171 3.5 481.634 3.5H435.931H434.431V5V125ZM495.487 93.1067L495.482 93.1089C491.547 94.911 486.713 95.8438 480.931 95.8438H470.009V34.1562H479.993C486.099 34.1562 491.15 35.0923 495.203 36.8976L495.208 36.8996C499.183 38.6542 502.214 41.6774 504.302 46.0733L504.307 46.0824C506.432 50.4796 507.556 56.745 507.556 65C507.556 73.2573 506.451 79.5265 504.361 83.9267L504.357 83.936C502.302 88.3396 499.341 91.3579 495.487 93.1067Z" stroke="black" stroke-width="3"/>
<path d="M291.345 125V126.5H292.845H349.329C358.205 126.5 365.931 125.008 372.463 121.965C378.968 118.935 384.038 114.742 387.608 109.368C391.221 103.988 393.017 97.8542 393.017 91.0156C393.017 85.1261 391.715 79.9297 389.055 75.4821C386.424 71.0437 382.878 67.557 378.431 65.0444C375.388 63.2982 372.118 62.1058 368.63 61.4624C371.565 60.4681 374.248 59.1298 376.671 57.4418L376.68 57.4352C380.34 54.8444 383.196 51.6221 385.224 47.775C387.3 43.9101 388.329 39.6418 388.329 35C388.329 28.6294 386.65 23.0252 383.248 18.2529C379.881 13.4748 374.913 9.83928 368.453 7.29583C362.015 4.74539 354.139 3.5 344.876 3.5H292.845H291.345V5V125ZM349.026 76.5717L349.034 76.5752C351.176 77.4882 352.768 78.7932 353.878 80.4747C354.975 82.1369 355.563 84.2181 355.563 86.7969C355.563 90.4395 354.351 93.0018 352.062 94.7373C349.701 96.4889 345.98 97.4844 340.657 97.4844H326.923V75.1719H341.126C344.3 75.1719 346.918 75.6581 349.026 76.5717ZM350.225 47.4185L350.222 47.4236C349.197 48.8452 347.737 49.9729 345.771 50.7804C343.797 51.591 341.478 52.0156 338.782 52.0156H326.923V32.0469H339.251C343.063 32.0469 346.086 32.9779 348.429 34.7352L348.435 34.7394L348.441 34.7436C350.66 36.3756 351.813 38.7285 351.813 42.0312C351.813 44.2271 351.261 45.9952 350.225 47.4185Z" stroke="black" stroke-width="3"/>
<path d="M188.703 125V126.5H190.203H276.453H277.953V125V98.75V97.25H276.453H224.281V79.625H272.234H273.734V78.125V51.875V50.375H272.234H224.281V32.75H276.688H278.188V31.25V5V3.5H276.688H190.203H188.703V5V125Z" stroke="black" stroke-width="3"/>
<path d="M38.7644 125.424L39.0816 126.5H40.2031H71.375H72.4866L72.8101 125.437L92.2344 61.5819L111.659 125.437L111.982 126.5H113.094H144.266H145.387L145.704 125.424L181.095 5.42431L181.663 3.5H179.656H143.328H142.124L141.864 4.67559L126.369 74.6225L107.982 4.61894L107.688 3.5H106.531H77.9375H76.7815L76.487 4.61781L58.0997 74.4011L42.6049 4.6746L42.3439 3.5H41.1406H4.8125H2.80624L3.37377 5.42431L38.7644 125.424Z" stroke="black" stroke-width="3"/>
</svg>
